<svg width="900" height="420" viewBox="0 0 900 420" xmlns="http://www.w3.org/2000/svg" role="img" aria-labelledby="title desc">
  <title id="title">Web Project Card</title>
  <desc id="desc">Premium project card for web and product projects.</desc>
  <defs>
    <linearGradient id="bg" x1="0" y1="0" x2="1" y2="1">
      <stop offset="0%" stop-color="#020617"/>
      <stop offset="100%" stop-color="#0f172a"/>
    </linearGradient>
    <linearGradient id="accent" x1="0" y1="0" x2="1" y2="0">
      <stop offset="0%" stop-color="#0ea5e9"/>
      <stop offset="100%" stop-color="#22d3ee"/>
    </linearGradient>
  </defs>
  <rect width="900" height="420" rx="28" fill="url(#bg)" stroke="#38bdf8" stroke-opacity="0.22"/>
  <rect x="28" y="28" width="844" height="364" rx="22" fill="none" stroke="#38bdf8" stroke-opacity="0.15" stroke-dasharray="12 10"/>
  <text x="54" y="82" fill="#7dd3fc" font-family="JetBrains Mono, Consolas, monospace" font-size="18">FEATURED PROJECT</text>
  <text x="54" y="140" fill="#ffffff" font-family="Inter, Segoe UI, Arial, sans-serif" font-size="42" font-weight="800">TypeRace</text>
  <text x="54" y="185" fill="#cbd5e1" font-family="Inter, Segoe UI, Arial, sans-serif" font-size="22">Fast-paced typing battle game</text>
  <rect x="54" y="224" width="248" height="12" rx="6" fill="url(#accent)"/>
  <text x="54" y="286" fill="#e2e8f0" font-family="Inter, Segoe UI, Arial, sans-serif" font-size="20">Designed for speed, focus, and a clean</text>
  <text x="54" y="318" fill="#e2e8f0" font-family="Inter, Segoe UI, Arial, sans-serif" font-size="20">interactive experience.</text>
  <g transform="translate(612,96)">
    <rect x="0" y="0" width="220" height="220" rx="26" fill="#0b1220" stroke="#38bdf8" stroke-opacity="0.28"/>
    <rect x="24" y="24" width="172" height="30" rx="10" fill="#11243a"/>
    <rect x="24" y="72" width="172" height="30" rx="10" fill="#11243a"/>
    <rect x="24" y="120" width="120" height="30" rx="10" fill="#11243a"/>
    <circle cx="170" cy="134" r="24" fill="#0ea5e9" opacity="0.35"/>
    <path d="M160 134l10-10 10 10-10 10z" fill="#ffffff"/>
  </g>
</svg>
