<svg width="900" height="420" viewBox="0 0 900 420" xmlns="http://www.w3.org/2000/svg" role="img" aria-labelledby="title desc">
  <title id="title">AI Project Card</title>
  <desc id="desc">Premium project card for AI and machine learning projects.</desc>
  <defs>
    <linearGradient id="bg" x1="0" y1="0" x2="1" y2="1">
      <stop offset="0%" stop-color="#0f172a"/>
      <stop offset="100%" stop-color="#020617"/>
    </linearGradient>
    <linearGradient id="accent" x1="0" y1="0" x2="1" y2="0">
      <stop offset="0%" stop-color="#22d3ee"/>
      <stop offset="100%" stop-color="#0ea5e9"/>
    </linearGradient>
  </defs>
  <rect width="900" height="420" rx="28" fill="url(#bg)" stroke="#38bdf8" stroke-opacity="0.22"/>
  <rect x="28" y="28" width="844" height="364" rx="22" fill="none" stroke="#38bdf8" stroke-opacity="0.15" stroke-dasharray="12 10"/>
  <text x="54" y="82" fill="#7dd3fc" font-family="JetBrains Mono, Consolas, monospace" font-size="18">FEATURED PROJECT</text>
  <text x="54" y="140" fill="#ffffff" font-family="Inter, Segoe UI, Arial, sans-serif" font-size="42" font-weight="800">AI Gender &amp; Age Detection</text>
  <text x="54" y="185" fill="#cbd5e1" font-family="Inter, Segoe UI, Arial, sans-serif" font-size="22">Computer Vision • TensorFlow • OpenCV</text>
  <rect x="54" y="224" width="248" height="12" rx="6" fill="url(#accent)"/>
  <text x="54" y="286" fill="#e2e8f0" font-family="Inter, Segoe UI, Arial, sans-serif" font-size="20">Real-time prediction system built with a clean</text>
  <text x="54" y="318" fill="#e2e8f0" font-family="Inter, Segoe UI, Arial, sans-serif" font-size="20">and practical product mindset.</text>
  <g transform="translate(640,110)">
    <circle cx="120" cy="90" r="82" fill="#0ea5e9" opacity="0.10"/>
    <circle cx="120" cy="90" r="58" fill="#22d3ee" opacity="0.16"/>
    <circle cx="120" cy="90" r="34" fill="#ffffff" opacity="0.9"/>
    <path d="M82 86c10-22 25-32 38-32s28 10 38 32" fill="none" stroke="#38bdf8" stroke-width="10" stroke-linecap="round"/>
    <circle cx="104" cy="82" r="5" fill="#0f172a"/>
    <circle cx="136" cy="82" r="5" fill="#0f172a"/>
    <path d="M103 104c10 8 24 8 34 0" fill="none" stroke="#0f172a" stroke-width="5" stroke-linecap="round"/>
  </g>
</svg>
